<svg width="184" height="56" viewBox="0 0 184 56" fill="none" xmlns="http://www.w3.org/2000/svg">
<path d="M18.2718 0.402257C8.59983 0.402257 0.730965 8.2584 0.730965 17.915V38.0848C0.730965 47.7414 8.59983 55.5977 18.2718 55.5977H28.1742C37.8463 55.5977 45.7152 47.7414 45.7152 38.0848V17.915C45.7152 8.2584 37.8463 0.402257 28.1742 0.402257H18.2718ZM28.1742 56H18.2718C8.37755 56 0.328064 47.9634 0.328064 38.0848V17.915C0.328064 8.03664 8.37755 1.48652e-06 18.2718 1.48652e-06H28.1742C38.0686 1.48652e-06 46.1179 8.03664 46.1179 17.915V38.0848C46.1179 47.9634 38.0686 56 28.1742 56Z" fill="#4A4A4A"/>
<path d="M44.3937 38.0849C44.3937 47.0286 37.1321 54.2785 28.1741 54.2785H18.2717C9.31385 54.2785 2.05225 47.0286 2.05225 38.0849V17.915C2.05225 8.97142 9.31385 1.72139 18.2717 1.72139H28.1741C37.1321 1.72139 44.3937 8.97142 44.3937 17.915V38.0849Z" fill="#4A4A4A"/>
<path d="M14.5952 12.1883C12.9095 12.1883 11.5381 13.5577 11.5381 15.2407C11.5381 16.9239 12.9095 18.2933 14.5952 18.2933C16.2809 18.2933 17.6525 16.9239 17.6525 15.2407C17.6525 13.5577 16.2809 12.1883 14.5952 12.1883ZM14.5952 19.3659C12.3171 19.3659 10.4637 17.5153 10.4637 15.2407C10.4637 12.9662 12.3171 11.1159 14.5952 11.1159C16.8733 11.1159 18.7266 12.9662 18.7266 15.2407C18.7266 17.5153 16.8733 19.3659 14.5952 19.3659Z" fill="white"/>
<path d="M15.1323 23.2473H14.058V19.0164H15.1323V23.2473Z" fill="white"/>
<path d="M25.5116 32.5667V31.4941C30.5125 31.4941 33.9317 28.36 34.1721 23.6384L1.87152 23.6383V22.5658H35.2597V23.1022C35.2597 28.6749 31.251 32.5667 25.5116 32.5667Z" fill="white"/>
<path d="M39.6825 32.2986H38.6082V5.17211H39.6825V32.2986Z" fill="white"/>
<path d="M26.4085 44.0532H25.3342V39.0927L38.6082 39.0925V35.8748H25.3787V34.8021H39.6826V40.165L26.4085 40.1653V44.0532Z" fill="white"/>
<path d="M39.8374 45.2599H25.3344V39.6292H26.4087V44.1875H39.8374V45.2599Z" fill="white"/>
<path d="M22.5138 32.7911H8.14496V23.4058H9.21913V31.7184H22.5138V32.7911Z" fill="white"/>
<path d="M71.2317 36.6445H67.0902L60.0604 23.0743C60.0604 23.4698 60.0637 23.9115 60.0712 24.3993C60.0779 24.8866 60.0849 25.3818 60.092 25.8837C60.0991 26.3855 60.1061 26.8799 60.1136 27.3677C60.1203 27.8554 60.124 28.2975 60.124 28.6931V36.6445H57.1933V19.9356H61.3347L68.3009 32.8911V19.9356H71.2317V36.6445Z" fill="#4D4C4E"/>
<path d="M86.4375 36.6445H76.3285C75.9884 36.6445 75.6704 36.581 75.3727 36.4539C75.0754 36.3265 74.8168 36.153 74.5977 35.9342C74.3782 35.715 74.201 35.4569 74.0667 35.1601C73.9316 34.8633 73.8647 34.5382 73.8647 34.185V22.3956C73.8647 22.0423 73.9316 21.7169 74.0667 21.4201C74.201 21.1233 74.3782 20.8651 74.5977 20.6459C74.8168 20.4271 75.0754 20.2536 75.3727 20.1266C75.6704 19.9991 75.9884 19.9356 76.3285 19.9356H86.013V22.5653H77.1779C77.0644 22.5653 76.9726 22.6006 76.9019 22.6708C76.8308 22.7418 76.7959 22.8335 76.7959 22.9468V26.5088H85.4821V29.1381H76.7959V33.6337C76.7959 33.747 76.8308 33.8388 76.9019 33.9093C76.9726 33.9799 77.0644 34.0156 77.1779 34.0156H86.4375V36.6445Z" fill="#4D4C4E"/>
<path d="M96.1855 36.6445H93.2552V22.5653H88.3703V19.9356H101.07V22.5653H96.1855V36.6445Z" fill="#4D4C4E"/>
<path d="M118.824 36.6445H114.96L112.963 26.9542C112.836 26.3042 112.705 25.6433 112.57 24.9717C112.435 24.3005 112.312 23.6392 112.199 22.9892C112.085 23.6392 111.961 24.3038 111.827 24.9821C111.692 25.6608 111.562 26.3183 111.434 26.9542L109.437 36.6445H105.572L102.11 19.9568H105.275L107.229 30.9193C107.299 31.2871 107.373 31.7147 107.452 32.2024C107.529 32.6898 107.597 33.1177 107.653 33.4851C107.724 33.1177 107.788 32.6898 107.845 32.2024C107.902 31.7147 107.965 31.2871 108.036 30.9193L110.351 19.9568H114.047L116.361 30.9193C116.431 31.2871 116.495 31.7147 116.553 32.2024C116.609 32.6898 116.673 33.1177 116.743 33.4851C116.786 33.1177 116.849 32.6898 116.935 32.2024C117.02 31.7147 117.097 31.2871 117.169 30.9193L119.122 19.9568H122.287L118.824 36.6445Z" fill="#4D4C4E"/>
<path d="M134.966 34.0155C135.079 34.0155 135.172 33.9802 135.242 33.9092C135.313 33.8386 135.348 33.7469 135.348 33.634V22.9467C135.348 22.8338 135.313 22.7416 135.242 22.6711C135.172 22.6005 135.079 22.5652 134.966 22.5652H127.108C126.994 22.5652 126.902 22.6005 126.832 22.6711C126.761 22.7416 126.726 22.8338 126.726 22.9467V33.634C126.726 33.7469 126.761 33.8386 126.832 33.9092C126.902 33.9802 126.994 34.0155 127.108 34.0155H134.966ZM138.28 34.1853C138.28 34.5385 138.212 34.8635 138.078 35.1599C137.942 35.4571 137.766 35.7149 137.547 35.9345C137.327 36.1529 137.069 36.3264 136.771 36.4538C136.473 36.5813 136.155 36.6443 135.815 36.6443H126.258C125.918 36.6443 125.601 36.5813 125.303 36.4538C125.005 36.3264 124.747 36.1529 124.528 35.9345C124.308 35.7149 124.131 35.4571 123.997 35.1599C123.862 34.8635 123.795 34.5385 123.795 34.1853V22.3954C123.795 22.0422 123.862 21.7171 123.997 21.4203C124.131 21.1231 124.308 20.8654 124.528 20.6462C124.747 20.427 125.005 20.2539 125.303 20.1265C125.601 19.999 125.918 19.9359 126.258 19.9359H135.815C136.155 19.9359 136.473 19.999 136.771 20.1265C137.069 20.2539 137.327 20.427 137.547 20.6462C137.766 20.8654 137.942 21.1231 138.078 21.4203C138.212 21.7171 138.28 22.0422 138.28 22.3954V34.1853Z" fill="#4D4C4E"/>
<path d="M150.194 27.251C150.307 27.251 150.398 27.2162 150.47 27.1452C150.54 27.0746 150.576 26.9829 150.576 26.8696V22.9468C150.576 22.8335 150.54 22.7418 150.47 22.6708C150.398 22.6006 150.307 22.5649 150.194 22.5649H143.843V27.251H150.194ZM154.505 36.6445H151.191L147.73 29.8803H143.843V36.6445H140.913V19.9356H151.043C151.383 19.9356 151.701 19.9991 151.999 20.1262C152.297 20.2536 152.555 20.4271 152.775 20.6459C152.993 20.8651 153.17 21.1233 153.304 21.4201C153.439 21.7169 153.507 22.0423 153.507 22.3956V27.4208C153.507 27.7741 153.439 28.0991 153.304 28.3963C153.17 28.6931 152.993 28.9509 152.775 29.1701C152.555 29.3893 152.297 29.5624 151.999 29.6898C151.701 29.8168 151.383 29.8803 151.043 29.8803H150.98L154.505 36.6445Z" fill="#4D4C4E"/>
<path d="M169.626 36.6445H166.08L160.643 28.9052L158.987 30.686V36.6445H156.055V19.9356H158.987V26.5939L165.166 19.9356H168.99L162.703 26.6998L169.626 36.6445Z" fill="#4D4C4E"/>
<path d="M183.453 34.1851C183.453 34.5383 183.385 34.8634 183.251 35.1602C183.117 35.457 182.939 35.7152 182.719 35.9343C182.5 36.1531 182.241 36.3266 181.945 36.4536C181.647 36.5811 181.328 36.6446 180.988 36.6446H172.388C172.048 36.6446 171.729 36.5811 171.431 36.4536C171.135 36.3266 170.876 36.1531 170.657 35.9343C170.437 35.7152 170.26 35.457 170.125 35.1602C169.992 34.8634 169.924 34.5383 169.924 34.1851V31.0465H172.855V33.6338C172.855 33.7467 172.89 33.8389 172.961 33.909C173.032 33.98 173.124 34.0153 173.238 34.0153H180.14C180.252 34.0153 180.344 33.98 180.416 33.909C180.486 33.8389 180.522 33.7467 180.522 33.6338V29.5201C180.522 29.4072 180.486 29.3155 180.416 29.2445C180.344 29.1735 180.252 29.1382 180.14 29.1382H172.494C172.154 29.1382 171.835 29.0747 171.539 28.9477C171.241 28.8203 170.982 28.6472 170.763 28.428C170.543 28.2092 170.366 27.9506 170.231 27.6542C170.098 27.357 170.03 27.0324 170.03 26.6787V22.3957C170.03 22.0424 170.098 21.717 170.231 21.4202C170.366 21.1234 170.543 20.8652 170.763 20.646C170.982 20.4268 171.241 20.2537 171.539 20.1263C171.835 19.9993 172.154 19.9358 172.494 19.9358H180.776C181.116 19.9358 181.435 19.9993 181.732 20.1263C182.029 20.2537 182.288 20.4268 182.507 20.646C182.727 20.8652 182.903 21.1234 183.039 21.4202C183.173 21.717 183.24 22.0424 183.24 22.3957V25.0245H180.308V22.9469C180.308 22.8336 180.274 22.7419 180.203 22.6709C180.133 22.6007 180.04 22.565 179.927 22.565H173.344C173.23 22.565 173.138 22.6007 173.067 22.6709C172.996 22.7419 172.961 22.8336 172.961 22.9469V26.1271C172.961 26.2408 172.996 26.3321 173.067 26.4031C173.138 26.4737 173.23 26.509 173.344 26.509H180.988C181.328 26.509 181.647 26.5729 181.945 26.6999C182.241 26.8269 182.5 27 182.719 27.2192C182.939 27.4388 183.117 27.6966 183.251 27.993C183.385 28.2902 183.453 28.6156 183.453 28.9689V34.1851Z" fill="#4D4C4E"/>
</svg>
