<svg width="53" height="48" viewBox="0 0 53 48" fill="none" xmlns="http://www.w3.org/2000/svg">
<path d="M30.3333 6.99996C30.3333 9.57729 23.7667 11.6666 15.6667 11.6666C7.56667 11.6666 1 9.57729 1 6.99996C1 4.42263 7.56667 2.33329 15.6667 2.33329C23.7667 2.33329 30.3333 4.42263 30.3333 6.99996Z" stroke="#CCCCCC" stroke-width="2" stroke-miterlimit="10" stroke-linecap="round" stroke-linejoin="round"/>
<path d="M30.3333 6.33335V15.5613C30.3333 18.072 23.7667 20.1067 15.6667 20.1067C7.56667 20.1067 1 18.072 1 15.5613V6.33335" stroke="#CCCCCC" stroke-width="2" stroke-miterlimit="10" stroke-linecap="round" stroke-linejoin="round"/>
<path d="M17.8893 30.336C17.116 30.376 16.3213 30.396 15.512 30.396C7.49734 30.396 1 28.3827 1 25.8987V17" stroke="#CCCCCC" stroke-width="2" stroke-miterlimit="10" stroke-linecap="round" stroke-linejoin="round"/>
<path d="M18.6667 39.56C17.6507 39.6293 16.5947 39.6666 15.512 39.6666C7.49734 39.6666 1 37.6533 1 35.1693V26.3333" stroke="#CCCCCC" stroke-width="2" stroke-miterlimit="10" stroke-linecap="round" stroke-linejoin="round"/>
<path d="M45.9121 28.7627C45.4481 27.644 45.54 26.3734 46.1614 25.3334L46.4214 24.8974L43.7694 22.2454L43.3334 22.5054C42.2934 23.1267 41.0227 23.2187 39.904 22.7547L39.8774 22.7427C38.7827 22.2894 37.9667 21.344 37.676 20.1947L37.5427 19.6667H33.7907L33.6574 20.1947C33.3667 21.344 32.5507 22.2894 31.456 22.7427L31.3947 22.7694C30.2987 23.224 29.052 23.1334 28.0334 22.5254L27.5654 22.2454L24.9121 24.8987L25.192 25.3654C25.8 26.3854 25.8907 27.632 25.436 28.728L25.4107 28.7894C24.9561 29.884 24.0107 30.7 22.8614 30.9907L22.3334 31.124V34.8761L22.8614 35.0094C24.0107 35.3001 24.9561 36.1161 25.4107 37.2107L25.436 37.272C25.8907 38.368 25.8 39.6147 25.192 40.6334L24.9121 41.1027L27.5654 43.7547L28 43.4947C29.04 42.8734 30.312 42.7814 31.4294 43.2454C32.5414 43.7067 33.3694 44.6667 33.664 45.8334L33.7907 46.3334H37.5427L37.676 45.8054C37.9667 44.6547 38.7827 43.7107 39.8774 43.2574L39.9387 43.2307C41.0347 42.776 42.2814 42.8667 43.3014 43.4747L43.7694 43.7547L46.4214 41.1014L46.1614 40.6667C45.54 39.6267 45.4481 38.3547 45.9121 37.2374L45.924 37.2107C46.3774 36.1161 47.3227 35.3001 48.472 35.0094L49 34.8761V31.124L48.5 30.9974C47.3334 30.7027 46.3734 29.8747 45.9121 28.7627Z" stroke="#CCCCCC" stroke-width="2" stroke-miterlimit="10" stroke-linecap="round" stroke-linejoin="round"/>
<path d="M39.4774 29.268C41.5387 31.372 41.5027 34.7493 39.3987 36.8107C37.2947 38.872 33.9174 38.836 31.856 36.732C29.7947 34.6266 29.8307 31.2506 31.9347 29.1893C34.04 27.128 37.416 27.164 39.4774 29.268Z" stroke="#CCCCCC" stroke-width="2" stroke-miterlimit="10" stroke-linecap="round" stroke-linejoin="round"/>
<path d="M49.8147 6.45732C49.536 5.78666 49.5907 5.024 49.964 4.4L50.12 4.13867L48.528 2.54801L48.2667 2.70267C47.6427 3.076 46.88 3.13065 46.2094 2.85198L46.1933 2.84534C45.536 2.57334 45.0467 2.00665 44.872 1.31732L44.792 0.999999H42.5414L42.4613 1.31732C42.2867 2.00665 41.7974 2.57334 41.14 2.84534L41.104 2.86133C40.4454 3.13333 39.6973 3.08001 39.0867 2.71468L38.8054 2.54801L37.2147 4.13867L37.3814 4.41999C37.7467 5.03065 37.8013 5.77867 37.528 6.43734L37.5134 6.47334C37.24 7.13067 36.6733 7.61999 35.984 7.79466L35.6667 7.87467V10.1253L35.984 10.2053C36.6733 10.38 37.24 10.8693 37.5134 11.5267L37.528 11.5627C37.8013 12.2213 37.7467 12.9693 37.3814 13.58L37.2147 13.8613L38.8054 15.452L39.0667 15.2973C39.6907 14.924 40.4533 14.8693 41.124 15.148C41.792 15.424 42.288 16 42.4654 16.7L42.5414 17H44.792L44.872 16.6827C45.0467 15.9933 45.536 15.4267 46.1933 15.1547L46.2294 15.1387C46.888 14.8653 47.636 14.92 48.248 15.2853L48.528 15.452L50.12 13.8613L49.964 13.6C49.5907 12.976 49.536 12.2133 49.8147 11.5427L49.8213 11.5267C50.0933 10.8693 50.66 10.38 51.3494 10.2053L51.6667 10.1253V7.87467L51.3667 7.79866C50.6667 7.62133 50.0907 7.12399 49.8147 6.45732Z" stroke="#CCCCCC" stroke-width="2" stroke-miterlimit="10" stroke-linecap="round" stroke-linejoin="round"/>
<path d="M45.572 7.13334C46.6027 8.18668 46.5853 9.87468 45.5333 10.9053C44.48 11.936 42.792 11.9187 41.7613 10.8653C40.7307 9.81334 40.7493 8.12534 41.8013 7.09467C42.8533 6.064 44.5413 6.08134 45.572 7.13334Z" stroke="#CCCCCC" stroke-width="2" stroke-miterlimit="10" stroke-linecap="round" stroke-linejoin="round"/>
</svg>
