<svg width="58" height="53" viewBox="0 0 58 53" fill="none" xmlns="http://www.w3.org/2000/svg">
<path d="M35.6667 7H54.052C55.68 7 57 8.32 57 9.948V40.052C57 41.68 55.68 43 54.052 43H3.94801C2.32001 43 1 41.68 1 40.052V9.948C1 8.32 2.32001 7 3.94801 7H5" stroke="#CCCCCC" stroke-width="2" stroke-miterlimit="10" stroke-linecap="round" stroke-linejoin="round"/>
<path d="M57 36.3333H1" stroke="#CCCCCC" stroke-width="2" stroke-miterlimit="10" stroke-linecap="round" stroke-linejoin="round"/>
<path d="M21.304 51.7493L24.2346 49.6813C24.708 49.3467 25.008 48.6253 25 47.8387L24.9933 43" stroke="#CCCCCC" stroke-width="2" stroke-miterlimit="10" stroke-linecap="round" stroke-linejoin="round"/>
<path d="M33 43L32.996 47.8467C32.992 48.6293 33.2907 49.3453 33.7613 49.6773L36.6973 51.7493" stroke="#CCCCCC" stroke-width="2" stroke-miterlimit="10" stroke-linecap="round" stroke-linejoin="round"/>
<path d="M28.8986 9.87868L28.864 9.79602C28.4613 8.82535 28.5413 7.72136 29.08 6.82002L29.3453 6.37469L26.9586 3.98802L26.5426 4.23602C25.6226 4.78536 24.496 4.86669 23.5066 4.45736L23.4546 4.43469C22.4706 4.02669 21.736 3.17735 21.476 2.14401L21.3546 1.66669H17.9786L17.8573 2.14401C17.5973 3.17735 16.864 4.02669 15.8786 4.43469L15.8266 4.45736C14.8373 4.86669 13.712 4.78536 12.792 4.23602L12.3746 3.98802L9.98795 6.37469L10.236 6.79069C10.7853 7.71203 10.8666 8.83735 10.4559 9.82668L10.4253 9.90269C10.0226 10.872 9.18663 11.5947 8.1693 11.852L7.66663 11.9787V15.3547L8.14397 15.476C9.1773 15.736 10.0266 16.4694 10.4346 17.4547L10.4559 17.5067C10.8666 18.496 10.7853 19.6213 10.236 20.5427L9.98795 20.9587L12.3746 23.3453L12.792 23.0974C13.712 22.548 14.8373 22.4667 15.8266 22.876L15.8786 22.8987C16.864 23.3067 17.5973 24.156 17.8573 25.1894L17.9786 25.6667H21.3546L21.476 25.1894C21.736 24.156 22.4706 23.3067 23.4546 22.8987L23.5066 22.876C24.496 22.4667 25.6213 22.548 26.5426 23.0974L26.9586 23.3453L29.3453 20.9587L29.08 20.5134C28.5413 19.612 28.4613 18.508 28.864 17.5374L28.8986 17.4547C29.3066 16.4694 30.156 15.736 31.1893 15.476L31.6666 15.3547V11.9787L31.1893 11.8574C30.156 11.5974 29.3066 10.864 28.8986 9.87868Z" stroke="#CCCCCC" stroke-width="2" stroke-miterlimit="10" stroke-linecap="round" stroke-linejoin="round"/>
<path d="M7.66663 31H10.3333" stroke="#CCCCCC" stroke-width="2" stroke-miterlimit="10" stroke-linecap="round" stroke-linejoin="round"/>
<path d="M14.3333 31H25" stroke="#CCCCCC" stroke-width="2" stroke-miterlimit="10" stroke-linecap="round" stroke-linejoin="round"/>
<path d="M51.6667 21.68C51.6667 21.6706 51.6667 21.6626 51.6667 21.6533C51.664 20.7946 52.0574 19.9866 52.7467 19.4733L53.072 19.2306L52.0347 16.7306L51.6333 16.7893C50.7827 16.9146 49.9333 16.6213 49.3267 16.0133C49.3213 16.0066 49.3147 16 49.308 15.9946C48.7027 15.3906 48.412 14.5413 48.536 13.6946L48.5947 13.2933L46.0933 12.2586L45.8507 12.5853C45.34 13.272 44.5347 13.6666 43.68 13.6666C43.672 13.6666 43.6613 13.6666 43.6533 13.6666C42.7947 13.6693 41.9867 13.276 41.4734 12.5866L41.2307 12.2613L38.7307 13.2986L38.7893 13.7C38.9147 14.5506 38.6214 15.4 38.0134 16.0066C38.0067 16.0133 38 16.0186 37.9947 16.0253C37.3907 16.6306 36.5413 16.9213 35.6947 16.7973L35.2933 16.7386L34.26 19.24L34.5853 19.4826C35.272 19.9933 35.6667 20.7986 35.6667 21.6533C35.6667 21.6626 35.6667 21.6706 35.6667 21.68C35.6693 22.5386 35.276 23.3466 34.588 23.86L34.2613 24.1026L35.2987 26.6026L35.7 26.544C36.5507 26.4186 37.4 26.712 38.0067 27.32C38.0134 27.3266 38.0187 27.3333 38.0253 27.3386C38.6307 27.9426 38.9213 28.792 38.7973 29.6386L38.74 30.04L41.24 31.0746L41.484 30.748C41.9933 30.0613 42.7987 29.6666 43.6533 29.6666C43.6627 29.6666 43.672 29.6666 43.68 29.6666C44.5387 29.664 45.3467 30.0573 45.8613 30.7466L46.1027 31.072L48.6027 30.0346L48.544 29.6333C48.4187 28.7826 48.712 27.9333 49.32 27.3266C49.3267 27.32 49.3334 27.3146 49.3387 27.308C49.9427 26.7026 50.792 26.412 51.6387 26.536L52.04 26.5946L53.0747 24.0933L52.748 23.8506C52.0627 23.34 51.6667 22.5346 51.6667 21.68Z" stroke="#CCCCCC" stroke-width="2" stroke-miterlimit="10" stroke-linecap="round" stroke-linejoin="round"/>
<path d="M23.6666 13.6667C23.6666 15.876 21.876 17.6667 19.6666 17.6667C17.4573 17.6667 15.6666 15.876 15.6666 13.6667C15.6666 11.4574 17.4573 9.66669 19.6666 9.66669C21.876 9.66669 23.6666 11.4574 23.6666 13.6667Z" stroke="#CCCCCC" stroke-width="2" stroke-miterlimit="10" stroke-linecap="round" stroke-linejoin="round"/>
<path d="M46.3333 21.6666C46.3333 23.14 45.14 24.3333 43.6667 24.3333C42.1947 24.3333 41 23.14 41 21.6666C41 20.1933 42.1947 19 43.6667 19C45.14 19 46.3333 20.1933 46.3333 21.6666Z" stroke="#CCCCCC" stroke-width="2" stroke-miterlimit="10" stroke-linecap="round" stroke-linejoin="round"/>
</svg>
