<svg width="53" height="53" viewBox="0 0 53 53" fill="none" xmlns="http://www.w3.org/2000/svg">
<path d="M31.8479 24.5979L36.0552 30.6249" stroke="#CCCCCC" stroke-width="2" stroke-miterlimit="10" stroke-linecap="round" stroke-linejoin="round"/>
<path d="M17.2855 30.6245L21.4927 24.5978" stroke="#CCCCCC" stroke-width="2" stroke-miterlimit="10" stroke-linecap="round" stroke-linejoin="round"/>
<path d="M30.3334 45H22.3334" stroke="#CCCCCC" stroke-width="2" stroke-miterlimit="10" stroke-linecap="round" stroke-linejoin="round"/>
<path d="M1 43.2453C1 42.0052 1.75933 42.3333 2.69587 42.3333H5.07867H12.8912H15.3041C16.2407 42.3333 17 43.3385 17 44.5787C17 47.7568 15.0541 50.3333 12.6541 50.3333H5.34587C2.94587 50.3333 1 46.4235 1 43.2453Z" stroke="#CCCCCC" stroke-width="2" stroke-miterlimit="10" stroke-linecap="round" stroke-linejoin="round"/>
<path d="M13 31.6666V34.3333C13 36.5426 11.2093 38.3333 9 38.3333C6.7912 38.3333 5 36.5426 5 34.3333V31.6666C5 29.4573 6.7912 27.6666 9 27.6666C11.2093 27.6666 13 29.4573 13 31.6666Z" stroke="#CCCCCC" stroke-width="2" stroke-miterlimit="10" stroke-linecap="round" stroke-linejoin="round"/>
<path d="M35.6667 45.912C35.6667 44.6719 36.426 43.6667 37.3626 43.6667H39.7454H47.5579H49.9708C50.9074 43.6667 51.6667 44.6719 51.6667 45.912C51.6667 49.0902 49.7208 51.6667 47.3208 51.6667H40.0126C37.6126 51.6667 35.6667 49.0902 35.6667 45.912Z" stroke="#CCCCCC" stroke-width="2" stroke-miterlimit="10" stroke-linecap="round" stroke-linejoin="round"/>
<path d="M47.6667 33V35.6667C47.6667 37.876 45.876 39.6667 43.6667 39.6667C41.4579 39.6667 39.6667 37.876 39.6667 35.6667V33C39.6667 30.7907 41.4579 29 43.6667 29C45.876 29 47.6667 30.7907 47.6667 33Z" stroke="#CCCCCC" stroke-width="2" stroke-miterlimit="10" stroke-linecap="round" stroke-linejoin="round"/>
<path d="M33 21H19.6667V10.3333H33V21Z" stroke="#CCCCCC" stroke-width="2" stroke-miterlimit="10" stroke-linecap="round" stroke-linejoin="round"/>
<path d="M22.3334 10.3333V4.63198C22.3334 2.62665 23.9594 0.99998 25.9656 0.99998H26.7016C28.7074 0.99998 30.3334 2.62665 30.3334 4.63198V10.3333" stroke="#CCCCCC" stroke-width="2" stroke-miterlimit="10" stroke-linecap="round" stroke-linejoin="round"/>
<path d="M26.3334 14.3333V17" stroke="#CCCCCC" stroke-width="2" stroke-miterlimit="10" stroke-linecap="round" stroke-linejoin="round"/>
</svg>
