<svg width="57" height="74" viewBox="0 0 57 74" fill="none" xmlns="http://www.w3.org/2000/svg">
<path d="M6.33768 73.2236H4.468L1.29438 67.0973C1.29438 67.2759 1.29588 67.4753 1.29926 67.6955C1.30226 67.9155 1.30545 68.1391 1.30864 68.3656C1.31183 68.5922 1.31502 68.8154 1.3184 69.0356C1.32141 69.2558 1.3231 69.4554 1.3231 69.6339V73.2236H0V65.6804H1.86968L5.01458 71.5291V65.6804H6.33768V73.2236Z" fill="#4D4C4E"/>
<path d="M13.2024 73.2236H8.63868C8.48514 73.2236 8.34155 73.1949 8.20715 73.1376C8.07295 73.0801 7.9562 73.0017 7.85728 72.903C7.75818 72.804 7.67822 72.6874 7.61759 72.5535C7.55659 72.4195 7.52637 72.2727 7.52637 72.1133V66.7909C7.52637 66.6314 7.55659 66.4845 7.61759 66.3505C7.67822 66.2165 7.75818 66.1 7.85728 66.001C7.9562 65.9022 8.07295 65.8239 8.20715 65.7666C8.34155 65.709 8.48514 65.6804 8.63868 65.6804H13.0108V66.8675H9.02215C8.9709 66.8675 8.92942 66.8835 8.89751 66.9151C8.86542 66.9472 8.84965 66.9886 8.84965 67.0398V68.6478H12.7711V69.8348H8.84965V71.8644C8.84965 71.9155 8.86542 71.957 8.89751 71.9888C8.92942 72.0207 8.9709 72.0368 9.02215 72.0368H13.2024V73.2236Z" fill="#4D4C4E"/>
<path d="M17.6031 73.2236H16.2802V66.8675H14.075V65.6804H19.8084V66.8675H17.6031V73.2236Z" fill="#4D4C4E"/>
<path d="M27.8234 73.2236H26.0789L25.1776 68.8489C25.12 68.5555 25.0609 68.2571 25 67.9539C24.939 67.6509 24.8835 67.3523 24.8324 67.0589C24.7812 67.3523 24.7251 67.6524 24.6646 67.9586C24.6038 68.265 24.5447 68.5618 24.4872 68.8489L23.5857 73.2236H21.8409L20.2779 65.6899H21.7065L22.5887 70.639C22.6206 70.805 22.654 70.998 22.6893 71.2182C22.7244 71.4382 22.7548 71.6314 22.7803 71.7973C22.8124 71.6314 22.8413 71.4382 22.8666 71.2182C22.8924 70.998 22.9211 70.805 22.9532 70.639L23.9981 65.6899H25.6666L26.7115 70.639C26.7432 70.805 26.7721 70.998 26.798 71.2182C26.8235 71.4382 26.8523 71.6314 26.884 71.7973C26.9031 71.6314 26.9318 71.4382 26.9705 71.2182C27.0088 70.998 27.0439 70.805 27.0762 70.639L27.958 65.6899H29.3866L27.8234 73.2236Z" fill="#4D4C4E"/>
<path d="M35.1106 72.0367C35.1619 72.0367 35.2035 72.0208 35.2352 71.9887C35.2675 71.9569 35.2831 71.9155 35.2831 71.8645V67.0397C35.2831 66.9887 35.2675 66.9471 35.2352 66.9152C35.2035 66.8834 35.1619 66.8675 35.1106 66.8675H31.5633C31.5118 66.8675 31.4702 66.8834 31.4386 66.9152C31.4064 66.9471 31.3908 66.9887 31.3908 67.0397V71.8645C31.3908 71.9155 31.4064 71.9569 31.4386 71.9887C31.4702 72.0208 31.5118 72.0367 31.5633 72.0367H35.1106ZM36.6068 72.1134C36.6068 72.2728 36.5762 72.4196 36.5155 72.5534C36.4544 72.6875 36.3748 72.8039 36.2757 72.9031C36.1766 73.0016 36.06 73.08 35.9256 73.1375C35.7912 73.195 35.6474 73.2235 35.4941 73.2235H31.1796C31.0261 73.2235 30.8827 73.195 30.7483 73.1375C30.6139 73.08 30.4973 73.0016 30.3982 72.9031C30.2989 72.8039 30.2193 72.6875 30.1587 72.5534C30.0977 72.4196 30.0677 72.2728 30.0677 72.1134V66.7908C30.0677 66.6313 30.0977 66.4846 30.1587 66.3506C30.2193 66.2164 30.2989 66.1 30.3982 66.0011C30.4973 65.9022 30.6139 65.824 30.7483 65.7665C30.8827 65.7089 31.0261 65.6805 31.1796 65.6805H35.4941C35.6474 65.6805 35.7912 65.7089 35.9256 65.7665C36.06 65.824 36.1766 65.9022 36.2757 66.0011C36.3748 66.1 36.4544 66.2164 36.5155 66.3506C36.5762 66.4846 36.6068 66.6313 36.6068 66.7908V72.1134Z" fill="#4D4C4E"/>
<path d="M41.9853 68.9829C42.0362 68.9829 42.0775 68.9672 42.1099 68.9351C42.1417 68.9033 42.1578 68.8619 42.1578 68.8107V67.0398C42.1578 66.9886 42.1417 66.9472 42.1099 66.9151C42.0775 66.8835 42.0362 66.8674 41.9853 66.8674H39.1184V68.9829H41.9853ZM43.9318 73.2236H42.4356L40.8728 70.1699H39.1184V73.2236H37.7953V65.6804H42.3688C42.5221 65.6804 42.6659 65.709 42.8003 65.7664C42.9347 65.8239 43.0513 65.9022 43.1504 66.001C43.2489 66.1 43.3291 66.2165 43.3895 66.3505C43.4503 66.4845 43.4809 66.6314 43.4809 66.7909V69.0596C43.4809 69.219 43.4503 69.3658 43.3895 69.5C43.3291 69.6339 43.2489 69.7503 43.1504 69.8493C43.0513 69.9482 42.9347 70.0264 42.8003 70.0839C42.6659 70.1412 42.5221 70.1699 42.3688 70.1699H42.3401L43.9318 73.2236Z" fill="#4D4C4E"/>
<path d="M50.7581 73.2236H49.157L46.7025 69.7297L45.955 70.5337V73.2236H44.6314V65.6804H45.955V68.6863L48.7446 65.6804H50.4709L47.6327 68.7341L50.7581 73.2236Z" fill="#4D4C4E"/>
<path d="M57 72.1133C57 72.2728 56.9694 72.4195 56.909 72.5535C56.8484 72.6875 56.7682 72.804 56.6689 72.903C56.5698 73.0018 56.4532 73.0801 56.3194 73.1374C56.185 73.195 56.0411 73.2236 55.8875 73.2236H52.005C51.8514 73.2236 51.7074 73.195 51.5731 73.1374C51.4392 73.0801 51.3221 73.0018 51.2236 72.903C51.1243 72.804 51.0441 72.6875 50.9835 72.5535C50.9231 72.4195 50.8925 72.2728 50.8925 72.1133V70.6964H52.2156V71.8644C52.2156 71.9154 52.2317 71.957 52.2634 71.9887C52.2957 72.0207 52.3372 72.0366 52.3886 72.0366H55.5046C55.5553 72.0366 55.5968 72.0207 55.6291 71.9887C55.6608 71.957 55.6769 71.9154 55.6769 71.8644V70.0073C55.6769 69.9563 55.6608 69.9149 55.6291 69.8828C55.5968 69.8508 55.5553 69.8349 55.5046 69.8349H52.0528C51.8995 69.8349 51.7553 69.8062 51.6215 69.7489C51.4871 69.6913 51.37 69.6132 51.2712 69.5142C51.1721 69.4155 51.092 69.2987 51.0314 69.1649C50.9709 69.0307 50.9403 68.8842 50.9403 68.7245V66.7909C50.9403 66.6315 50.9709 66.4845 51.0314 66.3505C51.092 66.2165 51.1721 66.1 51.2712 66.001C51.37 65.9021 51.4871 65.8239 51.6215 65.7664C51.7553 65.7091 51.8995 65.6804 52.0528 65.6804H55.7918C55.9451 65.6804 56.0893 65.7091 56.2231 65.7664C56.3575 65.8239 56.4741 65.9021 56.5734 66.001C56.6725 66.1 56.7521 66.2165 56.8133 66.3505C56.8737 66.4845 56.9043 66.6315 56.9043 66.7909V67.9777H55.5806V67.0398C55.5806 66.9886 55.5651 66.9472 55.533 66.9152C55.5012 66.8835 55.4596 66.8674 55.4083 66.8674H52.4365C52.385 66.8674 52.3434 66.8835 52.3117 66.9152C52.2796 66.9472 52.2634 66.9886 52.2634 67.0398V68.4755C52.2634 68.5268 52.2796 68.568 52.3117 68.6001C52.3434 68.6319 52.385 68.6479 52.4365 68.6479H55.8875C56.0411 68.6479 56.185 68.6767 56.3194 68.7341C56.4532 68.7914 56.5698 68.8696 56.6689 68.9685C56.7682 69.0677 56.8484 69.184 56.909 69.3178C56.9694 69.452 57 69.5989 57 69.7584V72.1133Z" fill="#4D4C4E"/>
<path d="M23.0564 0.442269C12.4225 0.442269 3.77104 9.07974 3.77104 19.6967V41.8726C3.77104 52.4895 12.4225 61.1272 23.0564 61.1272H33.9436C44.5777 61.1272 53.2292 52.4895 53.2292 41.8726V19.6967C53.2292 9.07974 44.5777 0.442269 33.9436 0.442269H23.0564ZM33.9436 61.5695H23.0564C12.1781 61.5695 3.32806 52.7335 3.32806 41.8726V19.6967C3.32806 8.83593 12.1781 6.37406e-06 23.0564 6.37406e-06H33.9436C44.8221 6.37406e-06 53.6719 8.83593 53.6719 19.6967V41.8726C53.6719 52.7335 44.8221 61.5695 33.9436 61.5695Z" fill="#F89734"/>
<path d="M51.7763 41.8726C51.7763 51.7058 43.7925 59.6767 33.9435 59.6767H23.0564C13.2076 59.6767 5.22375 51.7058 5.22375 41.8726V19.6967C5.22375 9.86365 13.2076 1.89258 23.0564 1.89258H33.9435C43.7925 1.89258 51.7763 9.86365 51.7763 19.6967V41.8726Z" fill="#F89734"/>
<path d="M19.0141 13.4005C17.1607 13.4005 15.6529 14.9061 15.6529 16.7565C15.6529 18.6071 17.1607 20.1127 19.0141 20.1127C20.8674 20.1127 22.3754 18.6071 22.3754 16.7565C22.3754 14.9061 20.8674 13.4005 19.0141 13.4005ZM19.0141 21.292C16.5094 21.292 14.4717 19.2574 14.4717 16.7565C14.4717 14.2558 16.5094 12.2214 19.0141 12.2214C21.5187 12.2214 23.5564 14.2558 23.5564 16.7565C23.5564 19.2574 21.5187 21.292 19.0141 21.292Z" fill="white"/>
<path d="M19.6047 25.5594H18.4235V20.9077H19.6047V25.5594Z" fill="white"/>
<path d="M31.016 35.8057V34.6264C36.5143 34.6264 40.2736 31.1806 40.5379 25.9894L5.0249 25.9893V24.8101H41.7337V25.3999C41.7337 31.5268 37.3263 35.8057 31.016 35.8057Z" fill="white"/>
<path d="M46.5967 35.5109H45.4155V5.68647H46.5967V35.5109Z" fill="white"/>
<path d="M32.0024 48.4346H30.8212V42.9807L45.4154 42.9805V39.4428H30.8702V38.2634H46.5966V44.1596L32.0024 44.16V48.4346Z" fill="white"/>
<path d="M46.7667 49.7612H30.8212V43.5705H32.0024V48.5821H46.7667V49.7612Z" fill="white"/>
<path d="M27.7204 36.0522H11.9225V25.7336H13.1035V34.8729H27.7204V36.0522Z" fill="white"/>
</svg>
