<svg width="272" height="74" viewBox="0 0 272 74" fill="none" xmlns="http://www.w3.org/2000/svg">
<path d="M105.668 55.3692V55.7135C105.668 56.5596 106.108 56.6188 107.692 56.6188C109.252 56.6188 109.467 56.3824 109.467 55.5263C109.467 54.4739 108.788 54.6114 107.454 54.5527C105.524 54.4544 104 54.5136 104 52.3687C104 50.3423 105.549 50.2831 107.692 50.2831C109.513 50.2831 111.002 50.3323 111.002 52.2704V52.5062H109.288V52.2704C109.288 51.4734 108.895 51.4438 107.692 51.4438C105.989 51.4438 105.715 51.5818 105.715 52.3687C105.715 53.2735 105.942 53.3031 107.68 53.392C110.431 53.5295 111.181 53.6474 111.181 55.5263C111.181 57.6024 109.99 57.7796 107.692 57.7796C105.715 57.7796 103.952 57.8287 103.952 55.7135V55.3692H105.668Z" fill="#F89734"/>
<path d="M96.8645 57.8395H95.1497V51.6709H92.5298V50.461H99.4843V51.6709H96.8645V57.8395Z" fill="#F89734"/>
<path d="M114.463 52.9787V54.966C114.463 56.4313 114.808 56.5693 116.523 56.5693C118.083 56.5693 118.618 56.3922 118.618 54.966V52.9787C118.654 51.5916 118.047 51.4932 116.523 51.4932C114.677 51.4932 114.499 51.8079 114.463 52.9787ZM120.334 52.9787V54.966C120.334 57.3271 119.226 57.7793 116.523 57.7793C113.76 57.7793 112.748 57.3858 112.748 54.966V52.9787C112.748 50.6868 113.689 50.2828 116.523 50.2828C119.095 50.2828 120.334 50.608 120.334 52.9787Z" fill="#F89734"/>
<path d="M124.008 56.5105H128.175V57.7204H122.293V50.3419H124.008V56.5105Z" fill="#F89734"/>
<path d="M137.15 50.3421V55.5858C137.15 57.6419 135.59 57.7794 133.422 57.7794C131.327 57.7794 129.719 57.6514 129.719 55.5858V50.3421H131.434V55.5858C131.434 56.3431 131.767 56.5694 133.422 56.5694C135.006 56.5694 135.435 56.3822 135.435 55.5858V50.3421H137.15Z" fill="#F89734"/>
<path d="M142.991 57.7205H141.276V51.5519H138.656V50.3419H145.611V51.5519H142.991V57.7205Z" fill="#F89734"/>
<path d="M148.833 57.7204H147.118V50.3418H148.833V57.7204Z" fill="#F89734"/>
<path d="M152.511 52.9787V54.966C152.511 56.4313 152.856 56.5693 154.57 56.5693C156.131 56.5693 156.666 56.3922 156.666 54.966V52.9787C156.702 51.5916 156.095 51.4932 154.57 51.4932C152.724 51.4932 152.547 51.8079 152.511 52.9787ZM158.382 52.9787V54.966C158.382 57.3271 157.274 57.7793 154.57 57.7793C151.808 57.7793 150.796 57.3858 150.796 54.966V52.9787C150.796 50.6868 151.737 50.2828 154.57 50.2828C157.143 50.2828 158.382 50.608 158.382 52.9787Z" fill="#F89734"/>
<path d="M166.902 50.3421H168.616V57.7206H165.771L161.972 51.552H161.913L162.055 57.7206H160.341V50.3421H163.175L166.998 56.5107H167.045L166.902 50.3421Z" fill="#F89734"/>
<path d="M181.1 52.8114V52.4079C181.1 51.5523 180.694 51.493 179.193 51.493C177.467 51.493 177.17 51.7294 177.17 53.1752V54.8082C177.182 56.2841 177.397 56.5691 179.193 56.5691C180.577 56.5691 181.194 56.5305 181.194 55.4777V55.0742H182.909V55.5559C182.945 57.7796 181.408 57.7013 179.193 57.7796C176.051 57.8785 175.49 57.0218 175.455 54.8679V53.1752C175.455 50.814 176.563 50.2831 179.193 50.2831C181.42 50.2831 182.695 50.2926 182.815 52.4079V52.8114H181.1Z" fill="#F89734"/>
<path d="M186.191 52.9787V54.966C186.191 56.4313 186.536 56.5693 188.251 56.5693C189.81 56.5693 190.347 56.3922 190.347 54.966V52.9787C190.383 51.5916 189.775 51.4932 188.251 51.4932C186.406 51.4932 186.227 51.8079 186.191 52.9787ZM192.062 52.9787V54.966C192.062 57.3271 190.955 57.7793 188.251 57.7793C185.489 57.7793 184.477 57.3858 184.477 54.966V52.9787C184.477 50.6868 185.417 50.2828 188.251 50.2828C190.823 50.2828 192.062 50.608 192.062 52.9787Z" fill="#F89734"/>
<path d="M200.582 50.3421H202.298V57.7206H199.451L195.652 51.552H195.593L195.737 57.7206H194.021V50.3421H196.856L200.676 56.5107H200.726L200.582 50.3421Z" fill="#F89734"/>
<path d="M205.898 55.3692V55.7135C205.898 56.5596 206.339 56.6188 207.924 56.6188C209.484 56.6188 209.699 56.3824 209.699 55.5263C209.699 54.4739 209.019 54.6114 207.686 54.5527C205.757 54.4544 204.232 54.5136 204.232 52.3687C204.232 50.3423 205.78 50.2831 207.924 50.2831C209.745 50.2831 211.234 50.3323 211.234 52.2704V52.5062H209.519V52.2704C209.519 51.4734 209.126 51.4438 207.924 51.4438C206.221 51.4438 205.948 51.5818 205.948 52.3687C205.948 53.2735 206.174 53.3031 207.912 53.392C210.662 53.5295 211.413 53.6474 211.413 55.5263C211.413 57.6024 210.222 57.7796 207.924 57.7796C205.948 57.7796 204.186 57.8287 204.186 55.7135V55.3692H205.898Z" fill="#F89734"/>
<path d="M214.897 53.3918H219.076V54.5525H214.897V56.5102H219.339V57.7206H213.181V50.3421H219.302V51.552H214.897V53.3918Z" fill="#F89734"/>
<path d="M225.3 54.0707C226.563 54.0707 226.872 53.8639 226.872 52.7814C226.872 51.7391 226.646 51.5519 225.419 51.5519H223.037V54.0707H225.3ZM223.037 55.2811V57.7206H221.324V50.342H225.885C227.836 50.3811 228.587 50.883 228.587 52.5556C228.587 53.6476 228.516 54.4445 227.004 54.6312V54.6709C228.217 54.7592 228.516 55.3002 228.516 56.343V57.7206H226.801V56.343C226.801 55.7232 226.49 55.2906 225.67 55.2811H223.037Z" fill="#F89734"/>
<path d="M234.32 57.7205H232.605V51.5519H229.986V50.3419H236.94V51.5519H234.32V57.7205Z" fill="#F89734"/>
<path d="M240.163 57.7204H238.448V50.3418H240.163V57.7204Z" fill="#F89734"/>
<path d="M249.008 50.3421H250.723V57.7206H247.877L244.077 51.552H244.018L244.162 57.7206H242.446V50.3421H245.281L249.102 56.5107H249.151L249.008 50.3421Z" fill="#F89734"/>
<path d="M260.398 53.805V55.1429C260.398 57.3269 259.731 57.7796 256.552 57.7796C253.695 57.7796 252.623 57.366 252.623 54.8679V53.1757C252.623 50.7156 253.789 50.2831 256.552 50.2831C258.731 50.2831 260.446 50.1948 260.385 52.5654H258.682C258.682 51.483 258.039 51.493 256.552 51.493C254.55 51.493 254.361 51.749 254.335 53.1757V54.8679C254.361 56.4121 254.647 56.5696 256.552 56.5696C258.183 56.5696 258.682 56.54 258.682 55.1429V54.8774H256.432V53.805H260.398Z" fill="#F89734"/>
<path d="M98.4675 41.7181H92.0916L81.2691 24.4306C81.2691 24.9345 81.2742 25.4972 81.2857 26.1185C81.296 26.7394 81.3068 27.3702 81.3177 28.0096C81.3286 28.6489 81.3395 29.2787 81.351 29.9001C81.3612 30.5215 81.367 31.0846 81.367 31.5886V41.7181H76.855V20.4322H83.2309L93.9556 36.9365V20.4322H98.4675V41.7181Z" fill="white"/>
<path d="M121.877 41.7181H106.314C105.791 41.7181 105.301 41.6372 104.843 41.4754C104.385 41.313 103.987 41.092 103.649 40.8133C103.312 40.5341 103.039 40.2051 102.832 39.827C102.624 39.4489 102.521 39.0349 102.521 38.5848V23.5659C102.521 23.1159 102.624 22.7013 102.832 22.3232C103.039 21.9451 103.312 21.6162 103.649 21.337C103.987 21.0583 104.385 20.8373 104.843 20.6754C105.301 20.5131 105.791 20.4322 106.314 20.4322H121.224V23.7822H107.622C107.447 23.7822 107.306 23.8272 107.197 23.9166C107.087 24.007 107.034 24.1238 107.034 24.2682V28.806H120.406V32.1555H107.034V37.8826C107.034 38.0269 107.087 38.1438 107.197 38.2337C107.306 38.3236 107.447 38.3691 107.622 38.3691H121.877V41.7181Z" fill="white"/>
<path d="M136.885 41.7181H132.373V23.7822H124.853V20.4322H144.405V23.7822H136.885V41.7181Z" fill="white"/>
<path d="M171.737 41.7181H165.788L162.715 29.3734C162.518 28.5453 162.317 27.7034 162.109 26.8478C161.901 25.9927 161.712 25.1503 161.538 24.3221C161.363 25.1503 161.171 25.9969 160.965 26.861C160.758 27.7256 160.556 28.5633 160.36 29.3734L157.286 41.7181H151.336L146.006 20.4591H150.878L153.886 34.4246C153.995 34.8932 154.109 35.4379 154.229 36.0592C154.349 36.68 154.452 37.2253 154.54 37.6933C154.649 37.2253 154.748 36.68 154.834 36.0592C154.922 35.4379 155.02 34.8932 155.129 34.4246L158.692 20.4591H164.382L167.945 34.4246C168.054 34.8932 168.152 35.4379 168.241 36.0592C168.328 36.68 168.426 37.2253 168.534 37.6933C168.599 37.2253 168.697 36.68 168.829 36.0592C168.959 35.4379 169.079 34.8932 169.189 34.4246L172.196 20.4591H177.068L171.737 41.7181Z" fill="white"/>
<path d="M196.588 38.3688C196.763 38.3688 196.905 38.3239 197.013 38.2335C197.123 38.1436 197.176 38.0267 197.176 37.8829V24.268C197.176 24.1241 197.123 24.0067 197.013 23.9168C196.905 23.8269 196.763 23.782 196.588 23.782H184.491C184.315 23.782 184.173 23.8269 184.066 23.9168C183.956 24.0067 183.903 24.1241 183.903 24.268V37.8829C183.903 38.0267 183.956 38.1436 184.066 38.2335C184.173 38.3239 184.315 38.3688 184.491 38.3688H196.588ZM201.69 38.5851C201.69 39.0352 201.586 39.4492 201.379 39.8268C201.17 40.2054 200.899 40.5338 200.561 40.8136C200.223 41.0917 199.825 41.3128 199.367 41.4751C198.909 41.6375 198.418 41.7178 197.896 41.7178H183.183C182.659 41.7178 182.17 41.6375 181.712 41.4751C181.253 41.3128 180.856 41.0917 180.518 40.8136C180.179 40.5338 179.908 40.2054 179.701 39.8268C179.493 39.4492 179.391 39.0352 179.391 38.5851V23.5657C179.391 23.1157 179.493 22.7016 179.701 22.3235C179.908 21.9449 180.179 21.6165 180.518 21.3373C180.856 21.0581 181.253 20.8375 181.712 20.6752C182.17 20.5128 182.659 20.4325 183.183 20.4325H197.896C198.418 20.4325 198.909 20.5128 199.367 20.6752C199.825 20.8375 200.223 21.0581 200.561 21.3373C200.899 21.6165 201.17 21.9449 201.379 22.3235C201.586 22.7016 201.69 23.1157 201.69 23.5657V38.5851Z" fill="white"/>
<path d="M220.032 29.7516C220.205 29.7516 220.346 29.7071 220.457 29.6167C220.565 29.5268 220.62 29.41 220.62 29.2656V24.2683C220.62 24.1239 220.565 24.007 220.457 23.9166C220.346 23.8272 220.205 23.7818 220.032 23.7818H210.255V29.7516H220.032ZM226.669 41.7181H221.567L216.238 33.1011H210.255V41.7181H205.743V20.4322H221.339C221.862 20.4322 222.353 20.5132 222.811 20.675C223.269 20.8373 223.667 21.0584 224.005 21.337C224.341 21.6163 224.614 21.9452 224.82 22.3233C225.027 22.7014 225.132 23.116 225.132 23.566V29.9679C225.132 30.4179 225.027 30.8319 224.82 31.2106C224.614 31.5887 224.341 31.9171 224.005 32.1963C223.667 32.4755 223.269 32.696 222.811 32.8584C222.353 33.0202 221.862 33.1011 221.339 33.1011H221.241L226.669 41.7181Z" fill="white"/>
<path d="M249.948 41.7181H244.488L236.118 31.8588L233.569 34.1275V41.7181H229.055V20.4322H233.569V28.9144L243.082 20.4322H248.969L239.29 29.0492L249.948 41.7181Z" fill="white"/>
<path d="M271.234 38.585C271.234 39.035 271.13 39.4491 270.924 39.8272C270.717 40.2053 270.444 40.5342 270.105 40.8134C269.767 41.0921 269.369 41.3131 268.913 41.4749C268.455 41.6373 267.964 41.7182 267.44 41.7182H254.2C253.676 41.7182 253.186 41.6373 252.727 41.4749C252.271 41.3131 251.871 41.0921 251.535 40.8134C251.197 40.5342 250.923 40.2053 250.717 39.8272C250.511 39.4491 250.406 39.035 250.406 38.585V34.5866H254.918V37.8827C254.918 38.0265 254.973 38.1439 255.081 38.2333C255.192 38.3237 255.333 38.3687 255.508 38.3687H266.134C266.307 38.3687 266.449 38.3237 266.559 38.2333C266.667 38.1439 266.722 38.0265 266.722 37.8827V32.6421C266.722 32.4983 266.667 32.3814 266.559 32.291C266.449 32.2006 266.307 32.1556 266.134 32.1556H254.363C253.84 32.1556 253.349 32.0747 252.892 31.9129C252.434 31.7506 252.035 31.53 251.698 31.2508C251.36 30.9721 251.087 30.6427 250.88 30.2651C250.674 29.8865 250.57 29.4729 250.57 29.0224V23.5661C250.57 23.116 250.674 22.7015 250.88 22.3234C251.087 21.9452 251.36 21.6163 251.698 21.3371C252.035 21.0579 252.434 20.8374 252.892 20.675C253.349 20.5132 253.84 20.4323 254.363 20.4323H267.114C267.637 20.4323 268.128 20.5132 268.585 20.675C269.043 20.8374 269.441 21.0579 269.779 21.3371C270.117 21.6163 270.388 21.9452 270.597 22.3234C270.803 22.7015 270.908 23.116 270.908 23.5661V26.9151H266.394V24.2683C266.394 24.124 266.341 24.0071 266.231 23.9167C266.123 23.8273 265.981 23.7818 265.806 23.7818H255.672C255.496 23.7818 255.354 23.8273 255.246 23.9167C255.137 24.0071 255.081 24.124 255.081 24.2683V28.3196C255.081 28.4645 255.137 28.5808 255.246 28.6713C255.354 28.7612 255.496 28.8061 255.672 28.8061H267.44C267.964 28.8061 268.455 28.8875 268.913 29.0494C269.369 29.2112 269.767 29.4317 270.105 29.7109C270.444 29.9907 270.717 30.319 270.924 30.6966C271.13 31.0753 271.234 31.4898 271.234 31.9399V38.585Z" fill="white"/>
<path d="M91.0081 57.8394H89.2933V50.4609H91.0081V57.8394Z" fill="#F89734"/>
<path d="M24.0395 0.531552C11.2586 0.531552 0.860469 10.9129 0.860469 23.6734V50.3264C0.860469 63.0869 11.2586 73.4684 24.0395 73.4684H37.1247C49.9058 73.4684 60.3039 63.0869 60.3039 50.3264V23.6734C60.3039 10.9129 49.9058 0.531552 37.1247 0.531552H24.0395ZM37.1247 74H24.0395C10.9649 74 0.328064 63.3801 0.328064 50.3264V23.6734C0.328064 10.6198 10.9649 -6.58361e-07 24.0395 -6.58361e-07H37.1247C50.1995 -6.58361e-07 60.8361 10.6198 60.8361 23.6734V50.3264C60.8361 63.3801 50.1995 74 37.1247 74Z" fill="#F89734"/>
<path d="M58.5576 50.3264C58.5576 62.145 48.9619 71.7251 37.1245 71.7251H24.0393C12.2021 71.7251 2.60638 62.145 2.60638 50.3264V23.6734C2.60638 11.8551 12.2021 2.27466 24.0393 2.27466H37.1245C48.9619 2.27466 58.5576 11.8551 58.5576 23.6734V50.3264Z" fill="#F89734"/>
<path d="M19.181 16.106C16.9534 16.106 15.1412 17.9155 15.1412 20.1395C15.1412 22.3637 16.9534 24.1733 19.181 24.1733C21.4085 24.1733 23.2209 22.3637 23.2209 20.1395C23.2209 17.9155 21.4085 16.106 19.181 16.106ZM19.181 25.5907C16.1706 25.5907 13.7216 23.1453 13.7216 20.1395C13.7216 17.134 16.1706 14.6888 19.181 14.6888C22.1913 14.6888 24.6404 17.134 24.6404 20.1395C24.6404 23.1453 22.1913 25.5907 19.181 25.5907Z" fill="white"/>
<path d="M19.8909 30.7197H18.4712V25.1289H19.8909V30.7197Z" fill="white"/>
<path d="M33.6061 43.0347V41.6173C40.2144 41.6173 44.7326 37.4759 45.0503 31.2366L2.36743 31.2364V29.8192H46.4875V30.528C46.4875 37.8919 41.1903 43.0347 33.6061 43.0347Z" fill="white"/>
<path d="M52.3324 42.6803H50.9127V6.83455H52.3324V42.6803Z" fill="white"/>
<path d="M34.7916 58.2133H33.3719V51.6583L50.9126 51.6581V47.4061H33.4308V45.9887H52.3323V53.0753L34.7916 53.0757V58.2133Z" fill="white"/>
<path d="M52.5367 59.8077H33.3719V52.3671H34.7916V58.3906H52.5367V59.8077Z" fill="white"/>
<path d="M29.645 43.3311H10.6576V30.9291H12.077V41.9136H29.645V43.3311Z" fill="white"/>
</svg>
